<?xml version="1.0" encoding="utf-8"?>
<!-- Generator: Adobe Illustrator 18.1.1, SVG Export Plug-In . SVG Version: 6.00 Build 0)  -->
<svg version="1.1" id="Layer_1" xmlns="http://www.w3.org/2000/svg" xmlns:xlink="http://www.w3.org/1999/xlink" x="0px" y="0px"
	 viewBox="0 0 280 78" enable-background="new 0 0 280 78" xml:space="preserve">
<g>
	<g>
		<g>
			<path fill="#85AF97" d="M12.6,59.5c1.5,0,2.9-0.4,4.2-1c4.3,8.5,13,14.3,23.2,14.3S58.9,67,63.1,58.5c1.3,0.6,2.7,1,4.2,1
				c5.2,0,9.4-4.2,9.4-9.4s-4.2-9.4-9.4-9.4c-0.7,0-1.4,0.1-2.1,0.2C62.5,29.6,52.2,21,40,21c-12.3,0-22.6,8.6-25.2,20.1
				c-0.7-0.2-1.4-0.2-2.1-0.2c-5.2,0-9.4,4.2-9.4,9.4S7.5,59.5,12.6,59.5z M65.9,46.9c0-0.9,0-1.7-0.1-2.5c0.5-0.1,1-0.2,1.6-0.2
				c3.3,0,6,2.7,6,6c0,3.3-2.7,6-6,6c-1,0-2-0.3-2.9-0.7C65.4,52.8,65.9,49.9,65.9,46.9z M36.8,24.6l0.9,0.8
				c0.4,0.4,1.1,0.9,1.2,1.3c0.2,0.7-1.3,2-1.8,2.4c-3,2.5-3.1,4.6-2.6,6c0.4,1.1,1.6,2.8,5.1,2.8c0.4,0,0.9,0,1.4-0.1
				c0.8-0.1,1.9-0.2,2.8-0.8c1.3-0.8,2-2.4,1.6-3.8c-0.3-1-1.2-1.7-2.2-1.9c0,0,0,0-0.1,0c-1.3-0.2-2.1,1.4-1.3,2.4
				c0.2,0.3,0.4,0.5,0.4,0.5c0-0.1-0.1-0.1-0.1-0.1c-0.3,0.2-0.9,0.3-1.4,0.3c-1.6,0.2-2.8,0-3-0.5c-0.1-0.4,0.3-1.2,1.5-2.2
				c1.1-0.9,3.5-2.9,3-5.6c-0.1-0.6-0.4-1.1-0.7-1.6c12.3,0.8,22,11.6,20.9,24.4c-0.9,11-9.9,19.9-21,20.6c-13.1,0.8-24-9.6-24-22.5
				C17.4,35.5,25.9,26.1,36.8,24.6z M12.6,44.2c0.5,0,1.1,0.1,1.6,0.2c-0.1,0.8-0.1,1.7-0.1,2.5c0,3,0.5,5.9,1.4,8.5
				c-0.9,0.5-1.8,0.7-2.9,0.7c-3.3,0-6-2.7-6-6C6.6,46.9,9.3,44.2,12.6,44.2z"/>
			<path fill="#85AF97" d="M39.7,12.9h0.4c0.8,0,1.4-0.6,1.4-1.4V5.4c0-0.8-0.6-1.4-1.4-1.4h-0.4c-0.8,0-1.4,0.6-1.4,1.4v6.1
				C38.4,12.3,39,12.9,39.7,12.9z"/>
			<path fill="#85AF97" d="M55.8,19.5c0.5,0.5,1.4,0.5,1.9,0l4.3-4.3c0.5-0.5,0.5-1.4,0-1.9L61.8,13c-0.5-0.5-1.4-0.5-1.9,0
				l-4.3,4.3c-0.5,0.5-0.5,1.4,0,1.9L55.8,19.5z"/>
			<path fill="#85AF97" d="M22.1,19.5c0.5,0.5,1.4,0.5,1.9,0l0.3-0.3c0.5-0.5,0.5-1.4,0-1.9L20.1,13c-0.5-0.5-1.4-0.5-1.9,0
				l-0.3,0.3c-0.5,0.5-0.5,1.4,0,1.9L22.1,19.5z"/>
			<path fill="#85AF97" d="M48.6,52.4c1.6,0,2.8-1.3,2.8-2.8c0-1.6-1.3-2.8-2.8-2.8c-1.6,0-2.8,1.3-2.8,2.8
				C45.8,51.1,47.1,52.4,48.6,52.4z"/>
			<path fill="#85AF97" d="M31.3,52.4c1.6,0,2.8-1.3,2.8-2.8c0-1.6-1.3-2.8-2.8-2.8c-1.6,0-2.8,1.3-2.8,2.8
				C28.5,51.1,29.7,52.4,31.3,52.4z"/>
			<path fill="#85AF97" d="M40,61.6c4.1,0,7.4-3.1,7.8-7.1H32.1C32.5,58.5,35.9,61.6,40,61.6z"/>
		</g>
	</g>
</g>
<g>
	<path fill="#85AF97" d="M105.7,51.6c0,0.9-0.3,1.9-0.8,2.9c-0.6,1-1.5,1.9-2.7,2.8c-0.4,0.3-0.8,0.5-1.4,0.9
		c-0.5,0.3-1.1,0.6-1.8,0.9c-0.6,0.3-1.3,0.6-2,0.9s-1.4,0.6-2.1,0.8c-0.7,0.2-1.4,0.4-2.1,0.5c-0.7,0.1-1.3,0.2-1.9,0.2
		c-0.3,0-0.6,0-0.8-0.1c-0.2,0-0.4-0.1-0.6-0.2c-0.2-0.1-0.4-0.3-0.5-0.5c-0.2-0.2-0.4-0.5-0.6-0.8c-0.3,0.2-0.6,0.4-1,0.5
		c-0.3,0.1-0.7,0.2-1.1,0.2h-0.6c-0.1,0-0.2,0-0.3-0.1s-0.2-0.2-0.2-0.3c-0.1-0.1-0.1-0.2-0.2-0.3c0-0.1-0.1-0.2-0.1-0.4
		c0-0.7,0.1-1.3,0.3-1.9c0.2-0.6,0.4-1.2,0.7-1.8c0.4-1.1,0.7-2.3,1.1-3.5c0.4-1.2,0.8-2.5,1.1-3.7c0.4-1.2,0.7-2.5,1-3.7
		c0.3-1.2,0.6-2.3,0.9-3.4l0.6-2.3c0,0,0-0.2,0-0.3c0-0.2,0-0.4,0-0.6c0-0.2,0-0.4,0-0.6l0-0.3l0.1-0.3l0,0c0.1-0.2,0.2-0.5,0.3-0.8
		c0.1-0.3,0.3-0.6,0.4-0.8c0.2-0.3,0.4-0.5,0.6-0.7c0.2-0.2,0.4-0.3,0.7-0.3c0.2,0,0.5,0,0.9,0c0.3,0,0.7,0,0.9,0c0.1,0,0.3,0,0.4,0
		c0.1,0,0.3,0,0.5-0.1c0.2-0.1,0.4-0.1,0.8-0.2c0.3-0.1,0.7-0.2,1.2-0.4c0.7-0.3,1.4-0.5,2.1-0.7c0.6-0.2,1.2-0.3,1.8-0.4
		c0.6-0.1,1.1-0.2,1.6-0.2c0.5-0.1,1.1-0.1,1.6-0.1c0.7,0,1.4,0.1,2,0.2c0.7,0.1,1.2,0.3,1.7,0.6c0.5,0.3,0.9,0.7,1.2,1.2
		c0.3,0.5,0.5,1.1,0.5,1.7c0,1.2-0.3,2.2-0.9,3.2c-0.6,0.9-1.5,1.8-2.6,2.6c-1.1,0.8-2.5,1.5-4.1,2.2c-1.6,0.7-3.4,1.4-5.3,2
		c1.6,0.2,2.9,0.5,4,0.8c1.1,0.3,2.1,0.7,2.8,1.1c0.7,0.4,1.3,0.9,1.6,1.5S105.7,50.9,105.7,51.6z M99,49.8c-0.1,0-0.4-0.1-0.7-0.1
		s-0.8-0.1-1.2-0.2c-0.5-0.1-1-0.2-1.5-0.2C95,49.1,94.5,49,94,48.9c-0.5-0.1-0.9-0.2-1.3-0.2c-0.4-0.1-0.7-0.1-0.9-0.2
		c-0.5,1.6-0.9,3.2-1.3,4.6s-0.8,3-1.1,4.5l1.3,0.1c0.3,0,0.6,0,0.8,0.1c0.2,0,0.4,0,0.4,0c0.5-0.1,1.1-0.2,1.7-0.3
		c0.6-0.2,1.3-0.3,2-0.6c0.7-0.2,1.4-0.5,2.1-0.8c0.7-0.3,1.4-0.6,2.1-1c0.2-0.2,0.5-0.3,0.8-0.6c0.3-0.2,0.5-0.5,0.8-0.7
		c0.2-0.3,0.4-0.6,0.6-0.9c0.1-0.3,0.2-0.6,0.2-0.9c0-0.5-0.3-1-0.8-1.4C100.6,50.3,99.9,50,99,49.8z M92.7,45.2
		c0.7-0.2,1.5-0.5,2.3-0.8c0.8-0.3,1.7-0.7,2.5-1.1c0.9-0.4,1.7-0.8,2.6-1.2c0.9-0.4,1.8-0.9,2.7-1.3h0c0.3-0.2,0.6-0.4,0.9-0.6
		c0.3-0.2,0.6-0.5,0.8-0.8c0.2-0.3,0.4-0.6,0.6-0.9c0.2-0.3,0.2-0.6,0.2-0.9c0-0.2,0-0.4-0.1-0.6c-0.1-0.2-0.2-0.4-0.4-0.5
		c-0.2-0.2-0.5-0.3-0.8-0.4c-0.3-0.1-0.7-0.1-1.2-0.1c-0.7,0-1.4,0.1-2.2,0.2c-0.8,0.2-1.6,0.4-2.4,0.6c-0.8,0.3-1.5,0.5-2.1,0.8
		c-0.6,0.3-1,0.6-1.2,0.9c0,0.1-0.1,0.2-0.2,0.4c-0.1,0.2-0.2,0.5-0.2,0.7c-0.1,0.3-0.2,0.5-0.3,0.8c-0.1,0.3-0.2,0.4-0.3,0.6
		c0,0.1-0.1,0.3-0.2,0.6c-0.1,0.3-0.2,0.6-0.3,1c-0.1,0.4-0.2,0.8-0.4,1.2C93,44.3,92.9,44.7,92.7,45.2z"/>
	<path fill="#85AF97" d="M116.8,59.6c0-0.4,0-0.8,0.1-1.4c0.1-0.5,0.1-1.2,0.1-2c-0.4,0.3-0.9,0.7-1.4,1.1c-0.5,0.4-1.1,0.8-1.6,1.2
		c-0.6,0.4-1.1,0.7-1.7,1c-0.6,0.3-1.1,0.4-1.6,0.4c-0.4,0-0.8-0.1-1.1-0.2c-0.4-0.1-0.7-0.3-0.9-0.5c-0.7-0.6-1.2-1.1-1.5-1.7
		c-0.3-0.6-0.5-1.2-0.5-1.9c0-0.3,0-0.7,0.1-1s0.1-0.8,0.3-1.2c0.5-2.1,1.4-4,2.6-5.8c1.2-1.8,2.7-3.3,4.5-4.5
		c0.7-0.5,1.4-0.8,2.1-0.9c0.7-0.1,1.4-0.2,2.1-0.2c0.3,0,0.6,0,1,0.1c0.4,0,0.7,0.1,1,0.1c0.3-0.1,0.5-0.1,0.7-0.1
		c0.2,0,0.4,0,0.6,0c0.4,0,0.7,0.1,1,0.2c0.3,0.1,0.5,0.2,0.6,0.4c0.2,0.2,0.3,0.4,0.3,0.6c0.1,0.2,0.1,0.5,0.1,0.7
		c0,0.3-0.1,0.7-0.2,1c-0.1,0.3-0.2,0.6-0.3,0.9l-2.6,10.4c-0.1,0.6-0.1,1.1-0.1,1.6c0,0.5-0.1,0.9-0.2,1.3c0,0.1-0.1,0.3-0.1,0.4
		c-0.1,0.2-0.2,0.3-0.3,0.5c-0.1,0.2-0.3,0.3-0.5,0.4c-0.2,0.1-0.5,0.2-0.8,0.2c-0.4,0-0.7,0-1-0.1c-0.2-0.1-0.4-0.1-0.6-0.2
		c-0.1-0.1-0.2-0.2-0.3-0.4C116.8,60,116.8,59.8,116.8,59.6z M110.3,53.7c-0.1,0.2-0.1,0.4-0.2,0.8c-0.1,0.3-0.1,0.7-0.1,1
		c0,0.4,0.1,0.7,0.2,1c0.1,0.3,0.3,0.4,0.7,0.4c0.6,0,1.1-0.1,1.5-0.4c0.5-0.2,0.9-0.5,1.4-0.9c0.6-0.5,1.1-1,1.7-1.5
		c0.6-0.6,1.1-1.2,1.7-1.8c0.5-0.6,1-1.3,1.4-1.9c0.4-0.7,0.7-1.3,0.9-2c0.1-0.4,0.2-0.8,0.3-1.3c0.1-0.5,0.1-0.9,0.1-1.3
		c0-0.2,0-0.3-0.1-0.5c-0.1-0.2-0.2-0.2-0.5-0.2c-0.6,0-1.3,0.1-1.9,0.4c-0.7,0.3-1.3,0.6-1.9,1c-0.6,0.4-1.2,0.9-1.7,1.5
		c-0.5,0.6-1,1.2-1.5,1.8c-0.4,0.7-0.8,1.3-1.2,2C110.7,52.3,110.4,53,110.3,53.7z"/>
	<path fill="#85AF97" d="M125.5,54c0.3-1.1,0.6-2.2,0.9-3.5c0.3-1.3,0.7-2.5,1.1-3.8c0.4-1.3,0.7-2.6,1.1-3.9c0.4-1.3,0.7-2.5,1-3.7
		c0.3-1.1,0.6-2.2,0.8-3.1c0.2-0.9,0.4-1.7,0.4-2.2l0.2-1.6c0-0.1,0.1-0.2,0.1-0.4c0-0.1,0.1-0.3,0.2-0.4c0.1-0.1,0.2-0.2,0.4-0.3
		c0.2-0.1,0.3-0.1,0.6-0.1c0.4,0,0.7,0.1,1,0.2c0.3,0.1,0.5,0.3,0.7,0.6c0.2,0.2,0.3,0.5,0.3,0.8c0.1,0.3,0.1,0.6,0.1,1
		c0,0.3,0,0.7-0.1,1c-0.1,0.3-0.1,0.7-0.2,0.9c-0.4,1.8-0.9,3.6-1.5,5.5c-0.6,1.8-1.1,3.7-1.5,5.5c0.5-0.5,1.1-1,1.7-1.4
		c0.6-0.4,1.2-0.8,1.9-1.2c0.7-0.3,1.3-0.6,2-0.8c0.7-0.2,1.4-0.3,2.1-0.3c0.7,0,1.3,0.1,1.9,0.3c0.5,0.2,1,0.5,1.3,0.9
		c0.3,0.4,0.6,0.8,0.8,1.3c0.2,0.5,0.2,1,0.2,1.6c0,0.3,0,0.6,0,0.9c0,0.3-0.1,0.6-0.1,0.9c-0.3,1.4-0.8,2.6-1.5,3.7
		c-0.6,1.1-1.3,2-2.1,2.9c-0.8,0.8-1.7,1.6-2.6,2.3c-0.9,0.7-1.9,1.2-2.8,1.7c-0.6,0.3-1.2,0.6-1.8,0.8c-0.6,0.2-1.1,0.3-1.7,0.3
		c-0.5,0-1-0.1-1.2-0.2c-0.3-0.1-0.5-0.3-0.8-0.5c-0.1,0.1-0.1,0.3-0.2,0.4c-0.1,0.1-0.2,0.3-0.4,0.4c-0.1,0.1-0.3,0.2-0.5,0.3
		c-0.2,0.1-0.4,0.1-0.6,0.1c-0.8,0-1.3-0.2-1.6-0.6c-0.3-0.4-0.5-0.9-0.5-1.5c0-0.2,0-0.5,0-0.7c0-0.2,0.1-0.5,0.1-0.7L125.5,54z
		 M138.1,46c-0.6,0-1.3,0.2-2,0.5c-0.7,0.3-1.5,0.7-2.2,1.2c-0.7,0.5-1.4,1-2.1,1.5c-0.7,0.5-1.3,1-1.8,1.4
		c-0.2,0.5-0.3,1.1-0.5,1.6c-0.2,0.5-0.3,1-0.5,1.5c-0.2,0.5-0.3,1-0.4,1.6c-0.1,0.5-0.2,1.1-0.3,1.7l-0.1,0.8l0.1,0.4
		c0.3-0.2,0.5-0.3,0.8-0.4c0.2-0.1,0.5-0.1,0.7-0.2c0.2-0.1,0.4-0.1,0.7-0.2c0.2-0.1,0.5-0.2,0.8-0.3c2.1-0.8,3.8-1.9,5.2-3.3
		c1.4-1.4,2.4-3.1,2.9-5.2c0.1-0.3,0.1-0.5,0.2-0.8c0-0.2,0.1-0.4,0.1-0.6c0-0.4-0.1-0.7-0.3-0.9C138.9,46.1,138.5,46,138.1,46z"/>
	<path fill="#85AF97" d="M143.4,69.6c-0.2,0-0.4-0.1-0.5-0.2c-0.2-0.1-0.3-0.2-0.4-0.4c-0.1-0.2-0.2-0.4-0.3-0.6
		c-0.1-0.2-0.1-0.4-0.1-0.6c0-0.2,0-0.5,0.1-0.7c0.1-0.2,0.1-0.3,0.2-0.5c0.1-0.1,0.2-0.2,0.3-0.3c0.1-0.1,0.2-0.1,0.3-0.2
		c0.3-0.1,0.7-0.2,1.1-0.3c0.4-0.1,0.9-0.2,1.4-0.4c0.5-0.2,1-0.4,1.6-0.7c0.6-0.3,1.1-0.7,1.7-1.1c0.6-0.5,1.2-1,1.9-1.6
		c0.7-0.6,1.3-1.3,1.9-2.2c0.6-0.8,1.2-1.8,1.7-2.8c0.5-1.1,1-2.3,1.3-3.6c-0.3,0.3-0.5,0.6-0.9,0.9c-0.3,0.3-0.7,0.7-1,1.1
		c-0.4,0.4-0.8,0.7-1.1,1c-0.4,0.3-0.8,0.6-1.2,0.9c-0.4,0.3-0.8,0.5-1.2,0.6c-0.4,0.2-0.7,0.2-1.1,0.2c-0.9,0-1.6-0.2-2.3-0.6
		c-0.6-0.4-1.2-1.1-1.7-2c-0.1-0.3-0.3-0.6-0.3-1c-0.1-0.4-0.1-0.8-0.1-1.3c0-0.7,0-1.4,0.1-2.1c0.1-0.7,0.2-1.4,0.3-2.1
		c0.1-0.7,0.3-1.5,0.5-2.3c0.2-0.8,0.4-1.7,0.6-2.6c0-0.2,0-0.5,0.1-0.7c0-0.2,0-0.4,0-0.5c0-0.2,0-0.3,0-0.3c0-0.2,0.1-0.4,0.2-0.6
		s0.3-0.4,0.5-0.5c0.2-0.1,0.4-0.3,0.6-0.3c0.2-0.1,0.4-0.1,0.6-0.1c0.3,0,0.6,0,0.8,0.1c0.3,0,0.5,0.1,0.7,0.3
		c0.2,0.2,0.4,0.5,0.5,0.9c0.1,0.4,0.2,0.7,0.2,1c0,0.1-0.1,0.4-0.2,0.7c-0.1,0.4-0.3,0.7-0.5,1.1c-0.3,1.2-0.6,2.2-0.8,3
		c-0.2,0.8-0.4,1.5-0.5,2.1c-0.1,0.5-0.2,1-0.2,1.3c0,0.3-0.1,0.6-0.1,0.7c0,0.7,0.1,1.3,0.4,1.7c0.2,0.4,0.5,0.6,0.9,0.6
		c0.2,0,0.4,0,0.7-0.1c0.3-0.1,0.5-0.2,0.8-0.4c1.1-0.7,2.1-1.4,2.9-2.2c0.8-0.8,1.5-1.7,2.1-2.7c0.6-1,1.1-2.1,1.5-3.2
		s0.8-2.5,1.1-3.9c0-0.1,0.1-0.2,0.2-0.3c0.1-0.1,0.2-0.2,0.4-0.2s0.3-0.1,0.4-0.2c0.2,0,0.3-0.1,0.5-0.1c0.7,0,1.2,0.2,1.6,0.6
		c0.4,0.4,0.6,0.9,0.6,1.5c0,0.2-0.1,0.6-0.2,1.1c-0.1,0.5-0.3,1.1-0.4,1.7c-0.2,0.6-0.3,1.1-0.5,1.7c-0.2,0.5-0.3,0.9-0.4,1.2
		l-0.9,2.7c-0.4,1.2-0.8,2.4-1.2,3.4c-0.3,1-0.7,2-1.1,2.9c-0.4,0.9-0.8,1.8-1.3,2.6c-0.5,0.8-1.1,1.6-1.8,2.3
		c-0.7,0.8-1.5,1.5-2.5,2.3c-1,0.8-2.1,1.6-3.4,2.4c-0.8,0.5-1.6,0.9-2.4,1.2C145.1,69.4,144.3,69.6,143.4,69.6z"/>
	<path fill="#D86979" d="M169,36.6c0.1-0.3,0.2-0.7,0.3-1.1c0.1-0.4,0.3-0.7,0.5-1.1c0.2-0.3,0.5-0.6,0.8-0.8
		c0.3-0.2,0.7-0.3,1.2-0.3c0.5,0,0.9,0.1,1.2,0.4c0.4,0.3,0.7,0.5,1,0.8c0.3,0.2,0.7,0.7,1,1.4c0.3,0.7,0.6,1.5,1,2.5
		c0.3,1,0.7,2.1,1.1,3.4c0.4,1.3,0.8,2.6,1.3,4c0.5,1.4,1,2.8,1.6,4.2c0.6,1.4,1.2,2.8,2,4.2c0.1,0.2,0.3,0.5,0.4,0.7
		c0.2,0.3,0.3,0.5,0.5,0.8c0.2,0.3,0.3,0.5,0.5,0.6c0.1,0.2,0.2,0.3,0.3,0.3c0,0,0.1-0.1,0.1-0.3s0.1-0.4,0.2-0.7
		c0.1-0.3,0.1-0.6,0.2-0.8s0.1-0.5,0.2-0.7c0.2-0.6,0.5-1.3,0.8-2.1s0.6-1.7,1-2.8c0.4-1.1,0.8-2.4,1.2-4c0.4-1.5,0.9-3.3,1.4-5.4
		c0.1-0.5,0.3-1.1,0.4-1.7c0.2-0.7,0.3-1.3,0.4-2c0.1-0.7,0.3-1.3,0.4-2c0.1-0.6,0.2-1.2,0.2-1.7c0-0.1,0-0.2,0-0.4
		c0-0.2,0-0.4,0.1-0.7c0-0.2,0.1-0.5,0.1-0.8c0.1-0.3,0.1-0.5,0.2-0.7c0.1-0.2,0.2-0.4,0.3-0.6c0.1-0.1,0.3-0.2,0.5-0.2
		c0.2,0,0.4,0,0.7,0.1c0.3,0.1,0.5,0.1,0.7,0.2c0.2,0.3,0.5,0.8,0.7,1.2c0.2,0.5,0.3,1.1,0.3,1.9c0,0.5-0.1,1.1-0.2,1.8
		c-0.1,0.7-0.2,1.5-0.4,2.3c-0.2,0.8-0.3,1.7-0.6,2.5c-0.2,0.9-0.4,1.7-0.6,2.5c-0.2,0.8-0.4,1.5-0.6,2.2c-0.2,0.7-0.4,1.2-0.5,1.6
		c-0.2,0.8-0.5,1.5-0.7,2.4c-0.3,0.8-0.5,1.7-0.8,2.5c-0.3,0.9-0.6,1.8-1,2.8c-0.4,1-0.8,2.1-1.2,3.2c-0.2,0.5-0.4,1-0.7,1.5
		c-0.3,0.5-0.5,1-0.9,1.4c-0.3,0.4-0.7,0.7-1.1,1c-0.4,0.3-0.9,0.4-1.4,0.4c-0.3,0-0.6,0-0.9-0.1c-0.3-0.1-0.6-0.3-0.8-0.5
		c-1.1-1.3-2-2.7-2.9-4.3c-0.8-1.6-1.6-3.2-2.3-5c-0.7-1.7-1.3-3.5-1.8-5.3c-0.5-1.8-1-3.5-1.4-5.1l-0.1-0.5
		c-0.1-0.2-0.1-0.4-0.1-0.6c0-0.2-0.1-0.4-0.1-0.5c0-0.2-0.1-0.3-0.2-0.4c-0.1-0.1-0.1-0.1-0.2-0.1c-0.1,0-0.2,0.1-0.3,0.4
		c-0.1,0.3-0.2,0.6-0.4,1c-0.1,0.4-0.2,0.7-0.3,1.1c-0.1,0.3-0.2,0.6-0.2,0.7c-0.1,0.3-0.2,0.8-0.4,1.5c-0.2,0.6-0.4,1.4-0.6,2.2
		c-0.2,0.8-0.5,1.7-0.7,2.5c-0.3,0.9-0.5,1.8-0.8,2.6c-0.3,0.8-0.5,1.6-0.7,2.3c-0.2,0.7-0.4,1.3-0.6,1.7c-0.1,0.3-0.3,0.8-0.4,1.3
		c-0.2,0.5-0.3,1.1-0.5,1.6c-0.2,0.5-0.3,1-0.5,1.5c-0.1,0.4-0.2,0.7-0.3,0.9c-0.2,0.5-0.4,0.9-0.7,1.1s-0.6,0.4-0.9,0.4
		c-0.2,0-0.4-0.1-0.6-0.2s-0.4-0.3-0.5-0.5c-0.2-0.2-0.3-0.4-0.4-0.6c-0.1-0.2-0.1-0.4-0.1-0.6c0-0.1,0-0.3,0.1-0.5
		c0.1-0.2,0.2-0.6,0.3-1.2l0.5-2L169,36.6z"/>
	<path fill="#D86979" d="M201.6,59.6c0-0.4,0-0.8,0.1-1.4c0.1-0.5,0.1-1.2,0.1-2c-0.4,0.3-0.9,0.7-1.4,1.1c-0.5,0.4-1.1,0.8-1.6,1.2
		c-0.6,0.4-1.1,0.7-1.7,1c-0.6,0.3-1.1,0.4-1.6,0.4c-0.4,0-0.8-0.1-1.1-0.2c-0.4-0.1-0.7-0.3-0.9-0.5c-0.7-0.6-1.2-1.1-1.5-1.7
		c-0.3-0.6-0.5-1.2-0.5-1.9c0-0.3,0-0.7,0.1-1c0.1-0.4,0.1-0.8,0.3-1.2c0.5-2.1,1.4-4,2.6-5.8c1.2-1.8,2.7-3.3,4.5-4.5
		c0.7-0.5,1.4-0.8,2.1-0.9c0.7-0.1,1.4-0.2,2.1-0.2c0.3,0,0.6,0,1,0.1c0.4,0,0.7,0.1,1,0.1c0.3-0.1,0.5-0.1,0.7-0.1
		c0.2,0,0.4,0,0.6,0c0.4,0,0.7,0.1,1,0.2c0.3,0.1,0.5,0.2,0.6,0.4c0.2,0.2,0.3,0.4,0.3,0.6c0.1,0.2,0.1,0.5,0.1,0.7
		c0,0.3-0.1,0.7-0.2,1c-0.1,0.3-0.2,0.6-0.3,0.9l-2.6,10.4c-0.1,0.6-0.1,1.1-0.1,1.6c0,0.5-0.1,0.9-0.2,1.3c0,0.1-0.1,0.3-0.1,0.4
		c-0.1,0.2-0.2,0.3-0.3,0.5c-0.1,0.2-0.3,0.3-0.5,0.4c-0.2,0.1-0.5,0.2-0.8,0.2c-0.4,0-0.7,0-1-0.1c-0.2-0.1-0.4-0.1-0.6-0.2
		c-0.1-0.1-0.2-0.2-0.3-0.4C201.6,60,201.6,59.8,201.6,59.6z M195,53.7c-0.1,0.2-0.1,0.4-0.2,0.8c-0.1,0.3-0.1,0.7-0.1,1
		c0,0.4,0.1,0.7,0.2,1c0.1,0.3,0.3,0.4,0.7,0.4c0.6,0,1.1-0.1,1.5-0.4c0.5-0.2,0.9-0.5,1.4-0.9c0.6-0.5,1.1-1,1.7-1.5
		c0.6-0.6,1.1-1.2,1.7-1.8c0.5-0.6,1-1.3,1.4-1.9c0.4-0.7,0.7-1.3,0.9-2c0.1-0.4,0.2-0.8,0.3-1.3c0.1-0.5,0.1-0.9,0.1-1.3
		c0-0.2,0-0.3-0.1-0.5c-0.1-0.2-0.2-0.2-0.5-0.2c-0.6,0-1.3,0.1-1.9,0.4c-0.7,0.3-1.3,0.6-1.9,1c-0.6,0.4-1.2,0.9-1.7,1.5
		c-0.5,0.6-1,1.2-1.5,1.8c-0.4,0.7-0.8,1.3-1.2,2C195.4,52.3,195.2,53,195,53.7z"/>
	<path fill="#D86979" d="M209.2,59.2c0.4-1.5,0.8-3,1.1-4.3c0.4-1.3,0.7-2.6,1.1-3.8c0.3-1.2,0.7-2.4,1-3.5c0.3-1.1,0.6-2.3,0.9-3.5
		c0.1-0.5,0.2-0.9,0.2-1.3c0-0.4,0.1-0.9,0.2-1.3c0.1-0.2,0.1-0.3,0.3-0.4c0.1-0.1,0.3-0.2,0.5-0.3c0.2-0.1,0.4-0.2,0.5-0.2
		c0.2-0.1,0.4-0.1,0.5-0.1c0.4,0,0.7,0,0.9,0.1c0.2,0.1,0.4,0.2,0.6,0.3c0.2,0.1,0.3,0.3,0.3,0.5c0.1,0.2,0.1,0.4,0.1,0.7
		c0,0.4-0.1,0.9-0.2,1.4c-0.1,0.5-0.3,1-0.5,1.5c0.6-0.5,1.3-0.9,1.9-1.4c0.7-0.4,1.3-0.8,2-1.1s1.4-0.6,2.1-0.8
		c0.7-0.2,1.5-0.3,2.3-0.3c0.4,0,0.7,0.1,1.1,0.2c0.4,0.1,0.7,0.3,1,0.5c0.3,0.2,0.5,0.5,0.7,0.9c0.2,0.4,0.3,0.8,0.3,1.4
		c0.6-0.4,1.2-0.8,1.8-1.2c0.6-0.4,1.2-0.7,1.8-1c0.6-0.3,1.3-0.6,1.9-0.7c0.6-0.2,1.2-0.3,1.8-0.3c0.9,0,1.6,0.1,2.2,0.3
		c0.6,0.2,1,0.5,1.4,0.9c0.3,0.4,0.6,0.8,0.7,1.4c0.1,0.5,0.2,1.1,0.2,1.6c0,0.6-0.1,1.3-0.2,2c-0.1,0.7-0.3,1.3-0.4,1.9
		c-0.4,1.5-0.8,3-1.3,4.3c-0.5,1.4-1,2.7-1.5,4.1c-0.1,0.3-0.3,0.7-0.4,1c-0.1,0.4-0.3,0.7-0.5,1c-0.2,0.3-0.4,0.6-0.7,0.8
		c-0.3,0.2-0.6,0.3-0.9,0.3c-0.8,0-1.3-0.1-1.6-0.4c-0.3-0.3-0.4-0.6-0.4-1.1c0-0.1,0-0.3,0-0.5c0-0.2,0-0.3,0.1-0.5
		c0.1-0.2,0.2-0.5,0.4-0.9c0.2-0.4,0.4-0.8,0.6-1.2c0.2-0.4,0.4-0.9,0.6-1.3c0.2-0.4,0.4-0.8,0.5-1.2c0.2-0.6,0.4-1.2,0.6-2
		c0.2-0.7,0.5-1.5,0.7-2.3c0.2-0.8,0.4-1.5,0.5-2.2c0.1-0.7,0.2-1.2,0.2-1.6c0-0.2,0-0.4-0.1-0.6c0-0.2-0.1-0.4-0.2-0.5
		c-0.1-0.1-0.2-0.3-0.4-0.4c-0.2-0.1-0.4-0.1-0.7-0.1c-0.4,0-0.9,0.1-1.4,0.3c-0.5,0.2-1.1,0.5-1.7,0.9c-0.6,0.4-1.2,0.8-1.7,1.2
		c-0.6,0.5-1,0.9-1.4,1.4c-0.3,0.3-0.5,0.6-0.8,0.8c-0.3,0.2-0.5,0.3-0.7,0.5c0,0.1-0.1,0.2-0.2,0.5c-0.1,0.3-0.2,0.7-0.4,1.1
		c-0.1,0.4-0.3,0.9-0.5,1.3c-0.2,0.5-0.3,0.9-0.4,1.3c-0.1,0.4-0.3,0.8-0.3,1c-0.1,0.3-0.1,0.4-0.1,0.5c-0.1,0.4-0.2,0.7-0.2,1.1
		c-0.1,0.4-0.1,0.8-0.2,1.1c-0.1,0.4-0.1,0.7-0.1,1.1c0,0.4-0.1,0.8-0.3,1.1c-0.1,0.3-0.3,0.6-0.6,0.9s-0.7,0.3-1.2,0.3
		c-0.3,0-0.5-0.1-0.7-0.2c-0.2-0.1-0.4-0.3-0.6-0.5c-0.2-0.2-0.3-0.4-0.4-0.7c-0.1-0.3-0.1-0.5-0.2-0.8c0.3-1.2,0.6-2.3,0.9-3.2
		c0.3-0.9,0.6-1.9,0.9-2.7c0.3-0.9,0.6-1.7,0.8-2.6c0.3-0.9,0.5-1.8,0.8-2.9c0.1-0.2,0.1-0.5,0.2-0.7c0-0.2,0.1-0.5,0.1-0.6
		c0-0.3-0.1-0.6-0.2-0.8c-0.1-0.2-0.4-0.3-0.7-0.3c-0.5,0-1.1,0.1-1.6,0.3c-0.5,0.2-1.1,0.6-1.7,1c-0.6,0.5-1.3,1-2.1,1.8
		s-1.6,1.6-2.6,2.5c-0.1,0.2-0.2,0.6-0.4,1.1c-0.2,0.5-0.3,1.1-0.5,1.7c-0.2,0.6-0.3,1.2-0.5,1.7c-0.1,0.5-0.2,0.9-0.3,1
		c-0.1,0.6-0.2,1-0.3,1.4c-0.1,0.4-0.1,0.7-0.1,1c0,0.2-0.1,0.4-0.1,0.8c-0.1,0.4-0.1,0.7-0.3,1.1c-0.1,0.4-0.3,0.7-0.6,1
		c-0.3,0.3-0.6,0.4-1,0.4c-0.6,0-1.1-0.2-1.5-0.5c-0.4-0.3-0.6-0.7-0.6-1.2c0-0.1,0-0.2,0-0.3C209.1,59.3,209.1,59.3,209.2,59.2z"/>
	<path fill="#D86979" d="M241.2,52.8c0-0.6,0.2-1,0.5-1.4c0.3-0.4,0.7-0.7,1.2-0.8c0.1-0.3,0.4-0.7,0.7-1.2c0.3-0.5,0.7-1,1.1-1.6
		c0.4-0.6,1-1.2,1.5-1.7c0.6-0.6,1.2-1.1,1.9-1.6c0.7-0.5,1.4-0.9,2.2-1.2c0.8-0.3,1.6-0.5,2.5-0.5c0.8,0,1.4,0.1,2,0.3
		c0.6,0.2,1,0.4,1.4,0.8c0.4,0.3,0.6,0.7,0.8,1.2c0.2,0.5,0.3,0.9,0.3,1.5c0,0.4-0.1,0.9-0.2,1.3c-0.2,0.7-0.5,1.4-1,1.9
		c-0.5,0.6-1.1,1-1.8,1.5c-0.7,0.4-1.4,0.8-2.2,1c-0.8,0.3-1.6,0.5-2.4,0.7s-1.6,0.3-2.3,0.4c-0.7,0.1-1.4,0.2-1.9,0.2
		c-0.1,0.2-0.2,0.5-0.3,0.9c-0.1,0.4-0.1,0.7-0.1,1.1c0,0.8,0.3,1.4,0.9,1.8c0.6,0.4,1.4,0.6,2.5,0.6c0.6,0,1.2-0.1,1.8-0.2
		c0.6-0.1,1.1-0.3,1.6-0.5s1-0.5,1.4-0.7s0.9-0.5,1.2-0.8c0.5-0.3,0.9-0.6,1.4-0.8c0.4-0.2,0.8-0.3,1.1-0.3c0.3,0,0.5,0.1,0.6,0.2
		c0.1,0.2,0.1,0.3,0.1,0.5c0,0.1,0,0.2,0,0.3c0,0.1,0,0.2,0,0.2c-0.1,0.3-0.2,0.7-0.4,1c-0.2,0.3-0.4,0.6-0.8,0.9
		c-1.4,1.1-2.8,1.8-4.2,2.3c-1.4,0.5-3,0.7-4.6,0.7c-0.3,0-0.7,0-1.1-0.1c-0.4,0-0.9-0.1-1.3-0.2c-0.5-0.1-0.9-0.3-1.4-0.5
		c-0.4-0.2-0.8-0.5-1.2-0.9c-0.3-0.4-0.6-0.8-0.8-1.4c-0.2-0.5-0.3-1.2-0.3-2c0-0.6,0.1-1.3,0.3-2.1c-0.2,0-0.3-0.1-0.5-0.3
		C241.2,53.4,241.2,53.1,241.2,52.8z M253.5,47.4c0-0.1,0-0.1,0-0.2c0-0.1,0-0.1,0-0.2c0-0.4-0.1-0.6-0.4-0.8
		c-0.3-0.2-0.6-0.3-0.9-0.3c-0.6,0-1.1,0.2-1.7,0.5c-0.6,0.3-1.1,0.7-1.6,1.1c-0.5,0.5-0.9,0.9-1.3,1.5c-0.4,0.5-0.7,1-0.9,1.4
		c0.9-0.1,1.8-0.2,2.6-0.4c0.8-0.2,1.5-0.4,2.1-0.7c0.6-0.3,1.1-0.6,1.4-0.9C253.2,48.1,253.4,47.8,253.5,47.4z"/>
	<path fill="#D86979" d="M259.4,58.4c0.2-0.9,0.4-1.9,0.6-3c0.2-1.1,0.5-2.2,0.7-3.4c0.2-1.1,0.5-2.2,0.7-3.3c0.2-1.1,0.4-2.1,0.6-3
		c0-0.1,0-0.2,0-0.3c0-0.1,0-0.2,0-0.3c0-0.4,0-0.8,0.1-1.2c0.1-0.4,0.1-0.8,0.2-1.1c0.1-0.5,0.3-0.8,0.5-1c0.2-0.2,0.5-0.3,0.9-0.3
		c0.4,0,0.7,0.1,0.9,0.2s0.4,0.4,0.5,0.6c0.1,0.3,0.2,0.5,0.3,0.9c0,0.3,0.1,0.7,0.1,1c0,0.2,0,0.4,0,0.6c0,0.2,0,0.4,0,0.5
		c0.4-0.4,0.8-0.8,1.2-1.2c0.4-0.4,0.9-0.8,1.3-1.1c0.5-0.3,1-0.6,1.5-0.8c0.5-0.2,1.1-0.3,1.6-0.3c0.2,0,0.4,0,0.7,0.1
		c0.2,0,0.4,0.1,0.7,0.2c0.3,0.1,0.5,0.2,0.8,0.3c0.3,0.1,0.6,0.3,0.8,0.5c0.4,0.3,0.8,0.7,1.1,1.2c0.3,0.5,0.4,1,0.4,1.5
		c0,0.2,0,0.4-0.1,0.6c-0.1,0.2-0.2,0.4-0.3,0.6c-0.1,0.2-0.3,0.3-0.5,0.5c-0.2,0.1-0.4,0.2-0.6,0.2s-0.5-0.1-0.8-0.2
		c-0.3-0.1-0.6-0.3-0.8-0.4c-0.1-0.1-0.2-0.2-0.3-0.3c-0.1-0.1-0.2-0.3-0.3-0.4c-0.1-0.1-0.2-0.3-0.2-0.4c-0.1-0.1-0.1-0.2-0.2-0.2
		c-0.1,0-0.1,0-0.2,0c-0.1,0-0.2,0-0.2,0c-0.7,0-1.3,0.2-1.9,0.5c-0.6,0.3-1.2,0.8-1.7,1.3c-0.5,0.5-1,1-1.5,1.6
		c-0.4,0.6-0.8,1.1-1.2,1.5c-0.3,1.1-0.6,2.2-0.9,3.4c-0.3,1.2-0.6,2.5-1,3.8v0.5c0,0.4,0,0.8,0,1.2c0,0.4-0.1,0.8-0.2,1.1
		c-0.1,0.2-0.4,0.4-0.6,0.5c-0.3,0.1-0.6,0.2-0.9,0.2c-0.6,0-1-0.2-1.2-0.5c-0.3-0.4-0.4-0.8-0.4-1.3
		C259.3,58.9,259.3,58.7,259.4,58.4z"/>
</g>
</svg>
